<svg width="19" height="15" viewBox="0 0 19 15" fill="none" xmlns="http://www.w3.org/2000/svg">
<path d="M1.8794 15C1.36256 15 0.920122 14.8164 0.552073 14.4492C0.184024 14.082 0 13.6406 0 13.125V1.875C0 1.35937 0.184024 0.917968 0.552073 0.550781C0.920122 0.183594 1.36256 0 1.8794 0H16.9146C17.4314 0 17.8739 0.183594 18.2419 0.550781C18.61 0.917968 18.794 1.35937 18.794 1.875V13.125C18.794 13.6406 18.61 14.082 18.2419 14.4492C17.8739 14.8164 17.4314 15 16.9146 15H1.8794ZM9.39699 8.43749L1.8794 3.74999V13.125H16.9146V3.74999L9.39699 8.43749ZM9.39699 6.56249L16.9146 1.875H1.8794L9.39699 6.56249ZM1.8794 3.74999V1.875V13.125V3.74999Z" fill="#9D9D9D"/>
</svg>
