<svg width="22" height="11" viewBox="0 0 22 11" fill="none" xmlns="http://www.w3.org/2000/svg">
<mask id="mask0_186_235" style="mask-type:alpha" maskUnits="userSpaceOnUse" x="-1" y="-6" width="23" height="23">
<rect x="-0.930664" y="-5.5" width="22" height="22" fill="#D9D9D9"/>
</mask>
<g mask="url(#mask0_186_235)">
<path d="M5.51291 7.33333C5.00756 7.33333 4.57495 7.15382 4.21508 6.79479C3.85521 6.43576 3.67527 6.00417 3.67527 5.5C3.67527 4.99583 3.85521 4.56424 4.21508 4.20521C4.57495 3.84618 5.00756 3.66667 5.51291 3.66667C6.01826 3.66667 6.45087 3.84618 6.81074 4.20521C7.17061 4.56424 7.35055 4.99583 7.35055 5.5C7.35055 6.00417 7.17061 6.43576 6.81074 6.79479C6.45087 7.15382 6.01826 7.33333 5.51291 7.33333ZM5.51291 11C3.98155 11 2.67989 10.4653 1.60793 9.39583C0.535977 8.32639 0 7.02778 0 5.5C0 3.97222 0.535977 2.67361 1.60793 1.60417C2.67989 0.534722 3.98155 0 5.51291 0C6.53893 0 7.46923 0.252083 8.30382 0.75625C9.13842 1.26042 9.80073 1.925 10.2908 2.75H18.3764L21.1328 5.5L16.9981 9.625L15.1605 8.25L13.3229 9.625L11.3704 8.25H10.2908C9.80073 9.075 9.13842 9.73958 8.30382 10.2438C7.46923 10.7479 6.53893 11 5.51291 11ZM5.51291 9.16667C6.37048 9.16667 7.12467 8.90695 7.7755 8.3875C8.42633 7.86806 8.85894 7.21111 9.07333 6.41667H11.9446L13.2769 7.35625L15.1605 5.95833L16.7914 7.21875L18.5142 5.5L17.5954 4.58333H9.07333C8.85894 3.78889 8.42633 3.13194 7.7755 2.6125C7.12467 2.09306 6.37048 1.83333 5.51291 1.83333C4.50221 1.83333 3.63699 2.19236 2.91725 2.91042C2.19751 3.62847 1.83764 4.49167 1.83764 5.5C1.83764 6.50833 2.19751 7.37153 2.91725 8.08958C3.63699 8.80764 4.50221 9.16667 5.51291 9.16667Z" fill="#9D9D9D"/>
</g>
</svg>
