<svg width="22" height="18" viewBox="0 0 22 18" fill="none" xmlns="http://www.w3.org/2000/svg">
<path d="M11.0001 14.0624C13.6074 14.0624 15.7181 11.9984 15.9123 9.38285L19.5182 6.53276C19.9922 7.14096 20.4285 7.78396 20.7805 8.48708C20.8591 8.64616 20.9001 8.82192 20.9001 9.00018C20.9001 9.17843 20.8591 9.35419 20.7805 9.51328C18.9163 13.2331 15.2258 15.7499 11.0001 15.7499C10.0751 15.7499 9.18271 15.6093 8.32265 15.3822L10.1064 13.9707C10.4009 14.0289 10.7001 14.0596 11.0001 14.0624ZM0.212576 16.105L4.01272 13.1013C2.85835 12.1063 1.90896 10.8866 1.21976 9.51292C1.14112 9.35384 1.10015 9.17808 1.10015 8.99982C1.10015 8.82157 1.14112 8.64581 1.21976 8.48672C3.08391 4.76688 6.7744 2.25007 11.0001 2.25007C12.7699 2.25226 14.5109 2.70793 16.0642 3.57545L20.4374 0.118568C20.4944 0.073184 20.5596 0.0397377 20.6293 0.02014C20.699 0.000542203 20.7717 -0.00482287 20.8434 0.00435132C20.9151 0.0135255 20.9844 0.0370592 21.0472 0.0736074C21.11 0.110156 21.1651 0.159002 21.2095 0.217356L21.8842 1.10574C21.9737 1.22351 22.0139 1.37282 21.9957 1.52083C21.9776 1.66884 21.9028 1.80342 21.7876 1.89499L1.56282 17.8814C1.5058 17.9268 1.44058 17.9603 1.37091 17.9799C1.30124 17.9995 1.22848 18.0048 1.15678 17.9956C1.08508 17.9865 1.01585 17.9629 0.953047 17.9264C0.890244 17.8898 0.835098 17.841 0.790762 17.7826L0.115639 16.8943C0.0261631 16.7764 -0.0138893 16.6271 0.00428963 16.4791C0.0224686 16.3311 0.0973911 16.1965 0.212576 16.105ZM6.52793 11.1129L7.87887 10.0448C7.7651 9.70856 7.70475 9.35581 7.70012 9C7.69341 8.47908 7.80625 7.96381 8.02958 7.49559C8.25291 7.02736 8.58049 6.61923 8.98603 6.30397C9.39156 5.98871 9.86374 5.77512 10.3646 5.68035C10.8655 5.58558 11.3812 5.61227 11.8701 5.75828C11.6629 6.04553 11.5507 6.39301 11.5501 6.75002C11.5552 6.86883 11.573 6.98671 11.603 7.10158L14.1334 5.10156C13.2544 4.35035 12.1456 3.93842 11.0001 3.93755C10.35 3.93718 9.70613 4.06787 9.1054 4.32215C8.50468 4.57644 7.95885 4.94932 7.49913 5.41948C7.03941 5.88965 6.67481 6.44788 6.42618 7.06225C6.17755 7.67662 6.04976 8.33509 6.05012 9C6.05012 9.76042 6.23197 10.4692 6.52793 11.1132V11.1129Z" fill="#C5C5C5"/>
</svg>
