<svg width="19" height="19" viewBox="0 0 19 19" fill="none" xmlns="http://www.w3.org/2000/svg">
<mask id="mask0_186_219" style="mask-type:alpha" maskUnits="userSpaceOnUse" x="-2" y="-2" width="23" height="23">
<rect x="-1.91237" y="-1.89558" width="22.7465" height="22.7465" fill="#D9D9D9"/>
</mask>
<g mask="url(#mask0_186_219)">
<path d="M3.65748 14.3113C4.46498 13.6953 5.36747 13.2095 6.36497 12.8541C7.36246 12.4987 8.40746 12.321 9.49995 12.321C10.5924 12.321 11.6374 12.4987 12.6349 12.8541C13.6324 13.2095 14.5349 13.6953 15.3424 14.3113C15.8966 13.6637 16.328 12.9292 16.6368 12.1078C16.9455 11.2864 17.0999 10.4097 17.0999 9.4777C17.0999 7.37681 16.3597 5.5879 14.8793 4.11095C13.3989 2.63401 11.6058 1.89554 9.49995 1.89554C7.39413 1.89554 5.60101 2.63401 4.1206 4.11095C2.64019 5.5879 1.89999 7.37681 1.89999 9.4777C1.89999 10.4097 2.05436 11.2864 2.36311 12.1078C2.67186 12.9292 3.10332 13.6637 3.65748 14.3113ZM9.49995 10.4255C8.56579 10.4255 7.77809 10.1056 7.13684 9.46586C6.49559 8.82611 6.17497 8.04025 6.17497 7.10828C6.17497 6.1763 6.49559 5.39044 7.13684 4.7507C7.77809 4.11095 8.56579 3.79108 9.49995 3.79108C10.4341 3.79108 11.2218 4.11095 11.8631 4.7507C12.5043 5.39044 12.8249 6.1763 12.8249 7.10828C12.8249 8.04025 12.5043 8.82611 11.8631 9.46586C11.2218 10.1056 10.4341 10.4255 9.49995 10.4255ZM9.49995 18.9554C8.18579 18.9554 6.9508 18.7066 5.79497 18.209C4.63914 17.7115 3.63373 17.0362 2.77874 16.1832C1.92374 15.3302 1.24687 14.3271 0.748121 13.174C0.249374 12.0209 0 10.7888 0 9.4777C0 8.16662 0.249374 6.93452 0.748121 5.7814C1.24687 4.62828 1.92374 3.62522 2.77874 2.77223C3.63373 1.91923 4.63914 1.24395 5.79497 0.746369C6.9508 0.24879 8.18579 0 9.49995 0C10.8141 0 12.0491 0.24879 13.2049 0.746369C14.3608 1.24395 15.3662 1.91923 16.2212 2.77223C17.0762 3.62522 17.753 4.62828 18.2518 5.7814C18.7505 6.93452 18.9999 8.16662 18.9999 9.4777C18.9999 10.7888 18.7505 12.0209 18.2518 13.174C17.753 14.3271 17.0762 15.3302 16.2212 16.1832C15.3662 17.0362 14.3608 17.7115 13.2049 18.209C12.0491 18.7066 10.8141 18.9554 9.49995 18.9554ZM9.49995 17.0599C10.3391 17.0599 11.1308 16.9374 11.8749 16.6926C12.6191 16.4478 13.2999 16.0963 13.9174 15.6382C13.2999 15.1801 12.6191 14.8287 11.8749 14.5838C11.1308 14.339 10.3391 14.2166 9.49995 14.2166C8.66079 14.2166 7.86913 14.339 7.12496 14.5838C6.3808 14.8287 5.69997 15.1801 5.08247 15.6382C5.69997 16.0963 6.3808 16.4478 7.12496 16.6926C7.86913 16.9374 8.66079 17.0599 9.49995 17.0599ZM9.49995 8.52993C9.91161 8.52993 10.252 8.39567 10.5212 8.12713C10.7904 7.8586 10.9249 7.51898 10.9249 7.10828C10.9249 6.69758 10.7904 6.35796 10.5212 6.08942C10.252 5.82089 9.91161 5.68662 9.49995 5.68662C9.08829 5.68662 8.74787 5.82089 8.47871 6.08942C8.20954 6.35796 8.07496 6.69758 8.07496 7.10828C8.07496 7.51898 8.20954 7.8586 8.47871 8.12713C8.74787 8.39567 9.08829 8.52993 9.49995 8.52993Z" fill="#9D9D9D"/>
</g>
</svg>
